<svg xmlns="http://www.w3.org/2000/svg" xmlns:xlink="http://www.w3.org/1999/xlink" width="500" zoomAndPan="magnify" viewBox="0 0 375 374.999991" height="500" preserveAspectRatio="xMidYMid meet" version="1.0"><defs><g/><clipPath id="6efe3fb22e"><path d="M 167.378906 252.554688 L 297.128906 252.554688 L 297.128906 314.804688 L 167.378906 314.804688 Z M 167.378906 252.554688 " clip-rule="nonzero"/></clipPath><clipPath id="92a60c885f"><path d="M 234.925781 60.148438 L 364.667969 60.148438 L 364.667969 121.648438 L 234.925781 121.648438 Z M 234.925781 60.148438 " clip-rule="nonzero"/></clipPath><clipPath id="83388edc45"><path d="M 34.445312 252.554688 L 164.191406 252.554688 L 164.191406 314.804688 L 34.445312 314.804688 Z M 34.445312 252.554688 " clip-rule="nonzero"/></clipPath><clipPath id="03e8a65f73"><path d="M 234.921875 187.726562 L 364.667969 187.726562 L 364.667969 249.976562 L 234.921875 249.976562 Z M 234.921875 187.726562 " clip-rule="nonzero"/></clipPath><clipPath id="a5b0ed1a90"><path d="M 102.347656 187.726562 L 232.09375 187.726562 L 232.09375 249.976562 L 102.347656 249.976562 Z M 102.347656 187.726562 " clip-rule="nonzero"/></clipPath><clipPath id="5a526c3c91"><path d="M 167.382812 123.9375 L 297.125 123.9375 L 297.125 185.4375 L 167.382812 185.4375 Z M 167.382812 123.9375 " clip-rule="nonzero"/></clipPath></defs><g clip-path="url(#6efe3fb22e)"><path stroke-linecap="butt" transform="matrix(0.748176, 0, 0, 0.749436, 167.380542, 252.554866)" fill="none" stroke-linejoin="miter" d="M -0.00218566 -0.000237933 L 173.419682 -0.000237933 L 173.419682 83.062265 L -0.00218566 83.062265 L -0.00218566 -0.000237933 " stroke="#ffffff" stroke-width="6" stroke-opacity="1" stroke-miterlimit="4"/></g><g clip-path="url(#92a60c885f)"><path stroke-linecap="butt" transform="matrix(0.748175, 0, 0, 0.752437, 234.924145, 60.146833)" fill="none" stroke-linejoin="miter" d="M 0.00218689 0.0021326 L 173.413629 0.0021326 L 173.413629 81.73651 L 0.00218689 81.73651 L 0.00218689 0.0021326 " stroke="#ffffff" stroke-width="6" stroke-opacity="1" stroke-miterlimit="4"/></g><g clip-path="url(#83388edc45)"><path stroke-linecap="butt" transform="matrix(0.748176, 0, 0, 0.749436, 34.44395, 252.554866)" fill="none" stroke-linejoin="miter" d="M 0.0018211 -0.000237933 L 173.418468 -0.000237933 L 173.418468 83.062265 L 0.0018211 83.062265 L 0.0018211 -0.000237933 " stroke="#ffffff" stroke-width="6" stroke-opacity="1" stroke-miterlimit="4"/></g><g clip-path="url(#03e8a65f73)"><path stroke-linecap="butt" transform="matrix(0.748176, 0, 0, 0.749436, 234.922093, 187.726041)" fill="none" stroke-linejoin="miter" d="M -0.000291474 0.000695493 L 173.416355 0.000695493 L 173.416355 83.063198 L -0.000291474 83.063198 L -0.000291474 0.000695493 " stroke="#ffffff" stroke-width="6" stroke-opacity="1" stroke-miterlimit="4"/></g><g clip-path="url(#a5b0ed1a90)"><path stroke-linecap="butt" transform="matrix(0.748176, 0, 0, 0.749436, 102.346997, 187.726041)" fill="none" stroke-linejoin="miter" d="M 0.000881171 0.000695493 L 173.417528 0.000695493 L 173.417528 83.063198 L 0.000881171 83.063198 L 0.000881171 0.000695493 " stroke="#ffffff" stroke-width="6" stroke-opacity="1" stroke-miterlimit="4"/></g><g clip-path="url(#5a526c3c91)"><path stroke-linecap="butt" transform="matrix(0.748175, 0, 0, 0.752437, 167.382591, 123.936378)" fill="none" stroke-linejoin="miter" d="M 0.000295908 0.00149081 L 173.411738 0.00149081 L 173.411738 81.735869 L 0.000295908 81.735869 L 0.000295908 0.00149081 " stroke="#ffffff" stroke-width="6" stroke-opacity="1" stroke-miterlimit="4"/></g><g fill="#ffffff" fill-opacity="1"><g transform="translate(65.113176, 166.760379)"><g><path d="M 57.578125 0 L 45.578125 0 L 45.578125 -18.234375 L 34.84375 0 L 25.890625 0 L 15.1875 -18.234375 L 15.1875 0 L 3.1875 0 L 3.1875 -28.609375 L 17.4375 -28.609375 L 30.375 -8.171875 L 43.296875 -28.609375 L 57.578125 -28.609375 Z M 57.578125 0 "/></g></g></g><g fill="#ffffff" fill-opacity="1"><g transform="translate(125.876905, 166.760379)"><g><path d="M 20.109375 0.625 C 13.140625 0.625 8.226562 -0.828125 5.375 -3.734375 C 2.988281 -6.160156 1.796875 -9.675781 1.796875 -14.28125 L 1.796875 -28.59375 L 13.796875 -28.59375 L 13.796875 -14.28125 C 13.796875 -12.28125 14.132812 -10.703125 14.8125 -9.546875 C 15.78125 -7.890625 17.546875 -7.0625 20.109375 -7.0625 C 22.703125 -7.0625 24.476562 -7.890625 25.4375 -9.546875 C 26.113281 -10.742188 26.453125 -12.320312 26.453125 -14.28125 L 26.453125 -28.59375 L 38.453125 -28.59375 L 38.453125 -14.109375 C 38.453125 -9.617188 37.265625 -6.160156 34.890625 -3.734375 C 32.023438 -0.828125 27.097656 0.625 20.109375 0.625 Z M 20.109375 0.625 "/></g></g></g><g fill="#ffffff" fill-opacity="1"><g transform="translate(166.126895, 166.760379)"><g><path d="M 42.25 0 L 30.90625 0 C 30.382812 -0.71875 30.015625 -1.632812 29.796875 -2.75 C 29.617188 -3.613281 29.34375 -4.457031 28.96875 -5.28125 C 28.59375 -6.113281 27.945312 -6.804688 27.03125 -7.359375 C 26.125 -7.910156 24.773438 -8.207031 22.984375 -8.25 L 15.1875 -8.25 L 15.1875 0 L 3.1875 0 L 3.1875 -28.609375 L 22.703125 -28.609375 C 27.367188 -28.609375 31.132812 -28.257812 34 -27.5625 C 36.863281 -26.863281 38.953125 -25.765625 40.265625 -24.265625 C 41.585938 -22.773438 42.25 -20.828125 42.25 -18.421875 C 42.25 -16.410156 41.789062 -14.71875 40.875 -13.34375 C 39.96875 -11.976562 38.53125 -10.898438 36.5625 -10.109375 C 38.457031 -9.328125 39.6875 -8.382812 40.25 -7.28125 C 40.820312 -6.1875 41.175781 -4.984375 41.3125 -3.671875 C 41.4375 -2.492188 41.75 -1.269531 42.25 0 Z M 15.1875 -15.3125 L 22.046875 -15.328125 C 23.960938 -15.328125 25.472656 -15.410156 26.578125 -15.578125 C 27.679688 -15.753906 28.492188 -15.992188 29.015625 -16.296875 C 29.535156 -16.597656 29.867188 -16.929688 30.015625 -17.296875 C 30.171875 -17.660156 30.25 -18.035156 30.25 -18.421875 C 30.25 -18.804688 30.171875 -19.179688 30.015625 -19.546875 C 29.867188 -19.921875 29.535156 -20.257812 29.015625 -20.5625 C 28.492188 -20.863281 27.679688 -21.097656 26.578125 -21.265625 C 25.472656 -21.441406 23.960938 -21.53125 22.046875 -21.53125 L 15.1875 -21.53125 Z M 15.1875 -15.3125 "/></g></g></g><g fill="#ffffff" fill-opacity="1"><g transform="translate(209.965293, 166.760379)"><g><path d="M 20.109375 0.625 C 13.140625 0.625 8.226562 -0.828125 5.375 -3.734375 C 2.988281 -6.160156 1.796875 -9.675781 1.796875 -14.28125 L 1.796875 -28.59375 L 13.796875 -28.59375 L 13.796875 -14.28125 C 13.796875 -12.28125 14.132812 -10.703125 14.8125 -9.546875 C 15.78125 -7.890625 17.546875 -7.0625 20.109375 -7.0625 C 22.703125 -7.0625 24.476562 -7.890625 25.4375 -9.546875 C 26.113281 -10.742188 26.453125 -12.320312 26.453125 -14.28125 L 26.453125 -28.59375 L 38.453125 -28.59375 L 38.453125 -14.109375 C 38.453125 -9.617188 37.265625 -6.160156 34.890625 -3.734375 C 32.023438 -0.828125 27.097656 0.625 20.109375 0.625 Z M 20.109375 0.625 "/></g></g></g><g fill="#ffffff" fill-opacity="1"><g transform="translate(0.0000045, 231.069652)"><g><path d="M 57.578125 0 L 45.578125 0 L 45.578125 -18.234375 L 34.84375 0 L 25.890625 0 L 15.1875 -18.234375 L 15.1875 0 L 3.1875 0 L 3.1875 -28.609375 L 17.4375 -28.609375 L 30.375 -8.171875 L 43.296875 -28.609375 L 57.578125 -28.609375 Z M 57.578125 0 "/></g></g></g><g fill="#ffffff" fill-opacity="1"><g transform="translate(60.763734, 231.069652)"><g><path d="M 20.109375 0.625 C 13.140625 0.625 8.226562 -0.828125 5.375 -3.734375 C 2.988281 -6.160156 1.796875 -9.675781 1.796875 -14.28125 L 1.796875 -28.59375 L 13.796875 -28.59375 L 13.796875 -14.28125 C 13.796875 -12.28125 14.132812 -10.703125 14.8125 -9.546875 C 15.78125 -7.890625 17.546875 -7.0625 20.109375 -7.0625 C 22.703125 -7.0625 24.476562 -7.890625 25.4375 -9.546875 C 26.113281 -10.742188 26.453125 -12.320312 26.453125 -14.28125 L 26.453125 -28.59375 L 38.453125 -28.59375 L 38.453125 -14.109375 C 38.453125 -9.617188 37.265625 -6.160156 34.890625 -3.734375 C 32.023438 -0.828125 27.097656 0.625 20.109375 0.625 Z M 20.109375 0.625 "/></g></g></g><g fill="#ffffff" fill-opacity="1"><g transform="translate(101.013723, 231.069652)"><g><path d="M 42.25 0 L 30.90625 0 C 30.382812 -0.71875 30.015625 -1.632812 29.796875 -2.75 C 29.617188 -3.613281 29.34375 -4.457031 28.96875 -5.28125 C 28.59375 -6.113281 27.945312 -6.804688 27.03125 -7.359375 C 26.125 -7.910156 24.773438 -8.207031 22.984375 -8.25 L 15.1875 -8.25 L 15.1875 0 L 3.1875 0 L 3.1875 -28.609375 L 22.703125 -28.609375 C 27.367188 -28.609375 31.132812 -28.257812 34 -27.5625 C 36.863281 -26.863281 38.953125 -25.765625 40.265625 -24.265625 C 41.585938 -22.773438 42.25 -20.828125 42.25 -18.421875 C 42.25 -16.410156 41.789062 -14.71875 40.875 -13.34375 C 39.96875 -11.976562 38.53125 -10.898438 36.5625 -10.109375 C 38.457031 -9.328125 39.6875 -8.382812 40.25 -7.28125 C 40.820312 -6.1875 41.175781 -4.984375 41.3125 -3.671875 C 41.4375 -2.492188 41.75 -1.269531 42.25 0 Z M 15.1875 -15.3125 L 22.046875 -15.328125 C 23.960938 -15.328125 25.472656 -15.410156 26.578125 -15.578125 C 27.679688 -15.753906 28.492188 -15.992188 29.015625 -16.296875 C 29.535156 -16.597656 29.867188 -16.929688 30.015625 -17.296875 C 30.171875 -17.660156 30.25 -18.035156 30.25 -18.421875 C 30.25 -18.804688 30.171875 -19.179688 30.015625 -19.546875 C 29.867188 -19.921875 29.535156 -20.257812 29.015625 -20.5625 C 28.492188 -20.863281 27.679688 -21.097656 26.578125 -21.265625 C 25.472656 -21.441406 23.960938 -21.53125 22.046875 -21.53125 L 15.1875 -21.53125 Z M 15.1875 -15.3125 "/></g></g></g><g fill="#ffffff" fill-opacity="1"><g transform="translate(144.852122, 231.069652)"><g><path d="M 20.109375 0.625 C 13.140625 0.625 8.226562 -0.828125 5.375 -3.734375 C 2.988281 -6.160156 1.796875 -9.675781 1.796875 -14.28125 L 1.796875 -28.59375 L 13.796875 -28.59375 L 13.796875 -14.28125 C 13.796875 -12.28125 14.132812 -10.703125 14.8125 -9.546875 C 15.78125 -7.890625 17.546875 -7.0625 20.109375 -7.0625 C 22.703125 -7.0625 24.476562 -7.890625 25.4375 -9.546875 C 26.113281 -10.742188 26.453125 -12.320312 26.453125 -14.28125 L 26.453125 -28.59375 L 38.453125 -28.59375 L 38.453125 -14.109375 C 38.453125 -9.617188 37.265625 -6.160156 34.890625 -3.734375 C 32.023438 -0.828125 27.097656 0.625 20.109375 0.625 Z M 20.109375 0.625 "/></g></g></g></svg>