<svg xmlns="http://www.w3.org/2000/svg" xmlns:xlink="http://www.w3.org/1999/xlink" width="500" zoomAndPan="magnify" viewBox="0 0 375 374.999991" height="500" preserveAspectRatio="xMidYMid meet" version="1.0"><defs><g/><clipPath id="3f65ce5f17"><path d="M 172.351562 252.707031 L 302.847656 252.707031 L 302.847656 314.957031 L 172.351562 314.957031 Z M 172.351562 252.707031 " clip-rule="nonzero"/></clipPath><clipPath id="cafc964cda"><path d="M 240.046875 59.851562 L 370.546875 59.851562 L 370.546875 121.351562 L 240.046875 121.351562 Z M 240.046875 59.851562 " clip-rule="nonzero"/></clipPath><clipPath id="6baa9d24cb"><path d="M 39.105469 252.707031 L 169.605469 252.707031 L 169.605469 314.957031 L 39.105469 314.957031 Z M 39.105469 252.707031 " clip-rule="nonzero"/></clipPath><clipPath id="cf83d36a4b"><path d="M 240.050781 187.726562 L 370.546875 187.726562 L 370.546875 249.976562 L 240.050781 249.976562 Z M 240.050781 187.726562 " clip-rule="nonzero"/></clipPath><clipPath id="ef95f3bfcc"><path d="M 107.167969 187.726562 L 237.664062 187.726562 L 237.664062 249.976562 L 107.167969 249.976562 Z M 107.167969 187.726562 " clip-rule="nonzero"/></clipPath><clipPath id="f24e3c41ba"><path d="M 172.351562 123.789062 L 302.851562 123.789062 L 302.851562 185.289062 L 172.351562 185.289062 Z M 172.351562 123.789062 " clip-rule="nonzero"/></clipPath></defs><g clip-path="url(#3f65ce5f17)"><path stroke-linecap="butt" transform="matrix(0.750809, 0, 0, 0.747748, 172.351253, 252.705305)" fill="none" stroke-linejoin="miter" d="M 0.000411979 0.00230859 L 173.807737 0.00230859 L 173.807737 83.25232 L 0.000411979 83.25232 L 0.000411979 0.00230859 " stroke="#191f55" stroke-width="6" stroke-opacity="1" stroke-miterlimit="4"/></g><g clip-path="url(#cafc964cda)"><path stroke-linecap="butt" transform="matrix(0.750809, 0, 0, 0.750715, 240.048694, 59.852271)" fill="none" stroke-linejoin="miter" d="M -0.00242317 -0.000944126 L 173.810093 -0.000944126 L 173.810093 81.920927 L -0.00242317 81.920927 L -0.00242317 -0.000944126 " stroke="#191f55" stroke-width="6" stroke-opacity="1" stroke-miterlimit="4"/></g><g clip-path="url(#6baa9d24cb)"><path stroke-linecap="butt" transform="matrix(0.750809, 0, 0, 0.747748, 39.107218, 252.705305)" fill="none" stroke-linejoin="miter" d="M -0.0023293 0.00230859 L 173.810198 0.00230859 L 173.810198 83.25232 L -0.0023293 83.25232 L -0.0023293 0.00230859 " stroke="#191f55" stroke-width="6" stroke-opacity="1" stroke-miterlimit="4"/></g><g clip-path="url(#cf83d36a4b)"><path stroke-linecap="butt" transform="matrix(0.750809, 0, 0, 0.747748, 240.049016, 187.726483)" fill="none" stroke-linejoin="miter" d="M 0.00235121 0.00010649 L 173.809676 0.00010649 L 173.809676 83.250118 L 0.00235121 83.250118 L 0.00235121 0.00010649 " stroke="#191f55" stroke-width="6" stroke-opacity="1" stroke-miterlimit="4"/></g><g clip-path="url(#ef95f3bfcc)"><path stroke-linecap="butt" transform="matrix(0.750809, 0, 0, 0.747748, 107.167308, 187.726483)" fill="none" stroke-linejoin="miter" d="M 0.000880234 0.00010649 L 173.808205 0.00010649 L 173.808205 83.250118 L 0.000880234 83.250118 L 0.000880234 0.00010649 " stroke="#191f55" stroke-width="6" stroke-opacity="1" stroke-miterlimit="4"/></g><g clip-path="url(#f24e3c41ba)"><path stroke-linecap="butt" transform="matrix(0.750809, 0, 0, 0.750715, 172.350932, 123.789381)" fill="none" stroke-linejoin="miter" d="M 0.000840317 -0.000423824 L 173.813357 -0.000423824 L 173.813357 81.921448 L 0.000840317 81.921448 L 0.000840317 -0.000423824 " stroke="#191f55" stroke-width="6" stroke-opacity="1" stroke-miterlimit="4"/></g><g fill="#191f55" fill-opacity="1"><g transform="translate(69.876255, 166.349066)"><g><path d="M 57.703125 0 L 45.671875 0 L 45.671875 -18.28125 L 34.921875 0 L 25.953125 0 L 15.21875 -18.28125 L 15.21875 0 L 3.203125 0 L 3.203125 -28.671875 L 17.484375 -28.671875 L 30.453125 -8.1875 L 43.40625 -28.671875 L 57.703125 -28.671875 Z M 57.703125 0 "/></g></g></g><g fill="#191f55" fill-opacity="1"><g transform="translate(130.77091, 166.349066)"><g><path d="M 20.15625 0.625 C 13.164062 0.625 8.242188 -0.828125 5.390625 -3.734375 C 2.992188 -6.171875 1.796875 -9.695312 1.796875 -14.3125 L 1.796875 -28.65625 L 13.828125 -28.65625 L 13.828125 -14.3125 C 13.828125 -12.3125 14.164062 -10.734375 14.84375 -9.578125 C 15.820312 -7.910156 17.59375 -7.078125 20.15625 -7.078125 C 22.757812 -7.078125 24.539062 -7.910156 25.5 -9.578125 C 26.175781 -10.773438 26.515625 -12.351562 26.515625 -14.3125 L 26.515625 -28.65625 L 38.546875 -28.65625 L 38.546875 -14.140625 C 38.546875 -9.640625 37.351562 -6.171875 34.96875 -3.734375 C 32.101562 -0.828125 27.164062 0.625 20.15625 0.625 Z M 20.15625 0.625 "/></g></g></g><g fill="#191f55" fill-opacity="1"><g transform="translate(171.107626, 166.349066)"><g><path d="M 42.34375 0 L 30.96875 0 C 30.445312 -0.71875 30.082031 -1.632812 29.875 -2.75 C 29.6875 -3.625 29.40625 -4.472656 29.03125 -5.296875 C 28.65625 -6.128906 28.007812 -6.820312 27.09375 -7.375 C 26.1875 -7.9375 24.832031 -8.234375 23.03125 -8.265625 L 15.21875 -8.265625 L 15.21875 0 L 3.203125 0 L 3.203125 -28.671875 L 22.765625 -28.671875 C 27.429688 -28.671875 31.203125 -28.320312 34.078125 -27.625 C 36.953125 -26.925781 39.046875 -25.828125 40.359375 -24.328125 C 41.679688 -22.828125 42.34375 -20.875 42.34375 -18.46875 C 42.34375 -16.457031 41.882812 -14.765625 40.96875 -13.390625 C 40.0625 -12.015625 38.617188 -10.925781 36.640625 -10.125 C 38.546875 -9.34375 39.78125 -8.398438 40.34375 -7.296875 C 40.914062 -6.203125 41.269531 -4.992188 41.40625 -3.671875 C 41.53125 -2.503906 41.84375 -1.28125 42.34375 0 Z M 15.21875 -15.34375 L 22.09375 -15.359375 C 24.019531 -15.359375 25.535156 -15.445312 26.640625 -15.625 C 27.742188 -15.800781 28.554688 -16.035156 29.078125 -16.328125 C 29.609375 -16.628906 29.945312 -16.960938 30.09375 -17.328125 C 30.238281 -17.703125 30.3125 -18.082031 30.3125 -18.46875 C 30.3125 -18.851562 30.238281 -19.226562 30.09375 -19.59375 C 29.945312 -19.96875 29.609375 -20.304688 29.078125 -20.609375 C 28.554688 -20.910156 27.742188 -21.144531 26.640625 -21.3125 C 25.535156 -21.488281 24.019531 -21.578125 22.09375 -21.578125 L 15.21875 -21.578125 Z M 15.21875 -15.34375 "/></g></g></g><g fill="#191f55" fill-opacity="1"><g transform="translate(215.040482, 166.349066)"><g><path d="M 20.15625 0.625 C 13.164062 0.625 8.242188 -0.828125 5.390625 -3.734375 C 2.992188 -6.171875 1.796875 -9.695312 1.796875 -14.3125 L 1.796875 -28.65625 L 13.828125 -28.65625 L 13.828125 -14.3125 C 13.828125 -12.3125 14.164062 -10.734375 14.84375 -9.578125 C 15.820312 -7.910156 17.59375 -7.078125 20.15625 -7.078125 C 22.757812 -7.078125 24.539062 -7.910156 25.5 -9.578125 C 26.175781 -10.773438 26.515625 -12.351562 26.515625 -14.3125 L 26.515625 -28.65625 L 38.546875 -28.65625 L 38.546875 -14.140625 C 38.546875 -9.640625 37.351562 -6.171875 34.96875 -3.734375 C 32.101562 -0.828125 27.164062 0.625 20.15625 0.625 Z M 20.15625 0.625 "/></g></g></g><g fill="#191f55" fill-opacity="1"><g transform="translate(4.612499, 230.807007)"><g><path d="M 57.703125 0 L 45.671875 0 L 45.671875 -18.28125 L 34.921875 0 L 25.953125 0 L 15.21875 -18.28125 L 15.21875 0 L 3.203125 0 L 3.203125 -28.671875 L 17.484375 -28.671875 L 30.453125 -8.1875 L 43.40625 -28.671875 L 57.703125 -28.671875 Z M 57.703125 0 "/></g></g></g><g fill="#191f55" fill-opacity="1"><g transform="translate(65.507154, 230.807007)"><g><path d="M 20.15625 0.625 C 13.164062 0.625 8.242188 -0.828125 5.390625 -3.734375 C 2.992188 -6.171875 1.796875 -9.695312 1.796875 -14.3125 L 1.796875 -28.65625 L 13.828125 -28.65625 L 13.828125 -14.3125 C 13.828125 -12.3125 14.164062 -10.734375 14.84375 -9.578125 C 15.820312 -7.910156 17.59375 -7.078125 20.15625 -7.078125 C 22.757812 -7.078125 24.539062 -7.910156 25.5 -9.578125 C 26.175781 -10.773438 26.515625 -12.351562 26.515625 -14.3125 L 26.515625 -28.65625 L 38.546875 -28.65625 L 38.546875 -14.140625 C 38.546875 -9.640625 37.351562 -6.171875 34.96875 -3.734375 C 32.101562 -0.828125 27.164062 0.625 20.15625 0.625 Z M 20.15625 0.625 "/></g></g></g><g fill="#191f55" fill-opacity="1"><g transform="translate(105.843869, 230.807007)"><g><path d="M 42.34375 0 L 30.96875 0 C 30.445312 -0.71875 30.082031 -1.632812 29.875 -2.75 C 29.6875 -3.625 29.40625 -4.472656 29.03125 -5.296875 C 28.65625 -6.128906 28.007812 -6.820312 27.09375 -7.375 C 26.1875 -7.9375 24.832031 -8.234375 23.03125 -8.265625 L 15.21875 -8.265625 L 15.21875 0 L 3.203125 0 L 3.203125 -28.671875 L 22.765625 -28.671875 C 27.429688 -28.671875 31.203125 -28.320312 34.078125 -27.625 C 36.953125 -26.925781 39.046875 -25.828125 40.359375 -24.328125 C 41.679688 -22.828125 42.34375 -20.875 42.34375 -18.46875 C 42.34375 -16.457031 41.882812 -14.765625 40.96875 -13.390625 C 40.0625 -12.015625 38.617188 -10.925781 36.640625 -10.125 C 38.546875 -9.34375 39.78125 -8.398438 40.34375 -7.296875 C 40.914062 -6.203125 41.269531 -4.992188 41.40625 -3.671875 C 41.53125 -2.503906 41.84375 -1.28125 42.34375 0 Z M 15.21875 -15.34375 L 22.09375 -15.359375 C 24.019531 -15.359375 25.535156 -15.445312 26.640625 -15.625 C 27.742188 -15.800781 28.554688 -16.035156 29.078125 -16.328125 C 29.609375 -16.628906 29.945312 -16.960938 30.09375 -17.328125 C 30.238281 -17.703125 30.3125 -18.082031 30.3125 -18.46875 C 30.3125 -18.851562 30.238281 -19.226562 30.09375 -19.59375 C 29.945312 -19.96875 29.609375 -20.304688 29.078125 -20.609375 C 28.554688 -20.910156 27.742188 -21.144531 26.640625 -21.3125 C 25.535156 -21.488281 24.019531 -21.578125 22.09375 -21.578125 L 15.21875 -21.578125 Z M 15.21875 -15.34375 "/></g></g></g><g fill="#191f55" fill-opacity="1"><g transform="translate(149.776725, 230.807007)"><g><path d="M 20.15625 0.625 C 13.164062 0.625 8.242188 -0.828125 5.390625 -3.734375 C 2.992188 -6.171875 1.796875 -9.695312 1.796875 -14.3125 L 1.796875 -28.65625 L 13.828125 -28.65625 L 13.828125 -14.3125 C 13.828125 -12.3125 14.164062 -10.734375 14.84375 -9.578125 C 15.820312 -7.910156 17.59375 -7.078125 20.15625 -7.078125 C 22.757812 -7.078125 24.539062 -7.910156 25.5 -9.578125 C 26.175781 -10.773438 26.515625 -12.351562 26.515625 -14.3125 L 26.515625 -28.65625 L 38.546875 -28.65625 L 38.546875 -14.140625 C 38.546875 -9.640625 37.351562 -6.171875 34.96875 -3.734375 C 32.101562 -0.828125 27.164062 0.625 20.15625 0.625 Z M 20.15625 0.625 "/></g></g></g></svg>