<svg width="30" height="30" viewBox="0 0 30 30" fill="none" xmlns="http://www.w3.org/2000/svg">
<path d="M25.6066 4.3934C31.4645 10.2513 31.4645 19.7487 25.6066 25.6066C19.7487 31.4645 10.2513 31.4645 4.3934 25.6066C-1.46447 19.7487 -1.46447 10.2513 4.3934 4.3934C10.2513 -1.46447 19.7487 -1.46447 25.6066 4.3934Z" fill="#FFE5B4"/>
<path d="M25.6066 4.3934C31.4645 10.2513 31.4645 19.7487 25.6066 25.6066C19.7487 31.4645 10.2513 31.4645 4.3934 25.6066C-1.46447 19.7487 -1.46447 10.2513 4.3934 4.3934C10.2513 -1.46447 19.7487 -1.46447 25.6066 4.3934Z" fill="#FFE5B4"/>
<path d="M24.1698 2.69748L27.6437 6.17136L6.30166 27.5134L2.82778 24.0395L24.1698 2.69748Z" fill="#191F55"/>
</svg>
