<svg xmlns="http://www.w3.org/2000/svg" xmlns:xlink="http://www.w3.org/1999/xlink" width="500" zoomAndPan="magnify" viewBox="0 0 375 374.999991" height="500" preserveAspectRatio="xMidYMid meet" version="1.0"><defs><g/><clipPath id="4a11283540"><path d="M 172.386719 252.554688 L 302.132812 252.554688 L 302.132812 314.804688 L 172.386719 314.804688 Z M 172.386719 252.554688 " clip-rule="nonzero"/></clipPath><clipPath id="209573e9a0"><path d="M 239.929688 60.148438 L 369.671875 60.148438 L 369.671875 121.648438 L 239.929688 121.648438 Z M 239.929688 60.148438 " clip-rule="nonzero"/></clipPath><clipPath id="c55fe7f862"><path d="M 39.449219 252.554688 L 169.199219 252.554688 L 169.199219 314.804688 L 39.449219 314.804688 Z M 39.449219 252.554688 " clip-rule="nonzero"/></clipPath><clipPath id="2b178d7e95"><path d="M 239.929688 187.726562 L 369.675781 187.726562 L 369.675781 249.976562 L 239.929688 249.976562 Z M 239.929688 187.726562 " clip-rule="nonzero"/></clipPath><clipPath id="976e571bb9"><path d="M 107.351562 187.726562 L 237.101562 187.726562 L 237.101562 249.976562 L 107.351562 249.976562 Z M 107.351562 187.726562 " clip-rule="nonzero"/></clipPath><clipPath id="da5c352861"><path d="M 172.386719 123.9375 L 302.132812 123.9375 L 302.132812 185.4375 L 172.386719 185.4375 Z M 172.386719 123.9375 " clip-rule="nonzero"/></clipPath></defs><g clip-path="url(#4a11283540)"><path stroke-linecap="butt" transform="matrix(0.748176, 0, 0, 0.749436, 172.386497, 252.554866)" fill="none" stroke-linejoin="miter" d="M 0.000296147 -0.000237933 L 173.416943 -0.000237933 L 173.416943 83.062265 L 0.000296147 83.062265 L 0.000296147 -0.000237933 " stroke="#ffe5b4" stroke-width="6" stroke-opacity="1" stroke-miterlimit="4"/></g><g clip-path="url(#209573e9a0)"><path stroke-linecap="butt" transform="matrix(0.748175, 0, 0, 0.752437, 239.930115, 60.146802)" fill="none" stroke-linejoin="miter" d="M -0.000571583 0.00217407 L 173.410871 0.00217407 L 173.410871 81.736552 L -0.000571583 81.736552 L -0.000571583 0.00217407 " stroke="#ffe5b4" stroke-width="6" stroke-opacity="1" stroke-miterlimit="4"/></g><g clip-path="url(#c55fe7f862)"><path stroke-linecap="butt" transform="matrix(0.748176, 0, 0, 0.749436, 39.449921, 252.554866)" fill="none" stroke-linejoin="miter" d="M -0.000938977 -0.000237933 L 173.420929 -0.000237933 L 173.420929 83.062265 L -0.000938977 83.062265 L -0.000938977 -0.000237933 " stroke="#ffe5b4" stroke-width="6" stroke-opacity="1" stroke-miterlimit="4"/></g><g clip-path="url(#2b178d7e95)"><path stroke-linecap="butt" transform="matrix(0.748176, 0, 0, 0.749436, 239.928066, 187.725969)" fill="none" stroke-linejoin="miter" d="M 0.00216788 0.000791565 L 173.418815 0.000791565 L 173.418815 83.063295 L 0.00216788 83.063295 L 0.00216788 0.000791565 " stroke="#ffe5b4" stroke-width="6" stroke-opacity="1" stroke-miterlimit="4"/></g><g clip-path="url(#976e571bb9)"><path stroke-linecap="butt" transform="matrix(0.748176, 0, 0, 0.749436, 107.352962, 187.725969)" fill="none" stroke-linejoin="miter" d="M -0.00187089 0.000791565 L 173.419997 0.000791565 L 173.419997 83.063295 L -0.00187089 83.063295 L -0.00187089 0.000791565 " stroke="#ffe5b4" stroke-width="6" stroke-opacity="1" stroke-miterlimit="4"/></g><g clip-path="url(#da5c352861)"><path stroke-linecap="butt" transform="matrix(0.748175, 0, 0, 0.752437, 172.388547, 123.936378)" fill="none" stroke-linejoin="miter" d="M -0.00244332 0.00149081 L 173.41422 0.00149081 L 173.41422 81.735869 L -0.00244332 81.735869 L -0.00244332 0.00149081 " stroke="#ffe5b4" stroke-width="6" stroke-opacity="1" stroke-miterlimit="4"/></g><g fill="#ffe5b4" fill-opacity="1"><g transform="translate(70.130867, 166.760336)"><g><path d="M 57.578125 0 L 45.578125 0 L 45.578125 -18.234375 L 34.84375 0 L 25.890625 0 L 15.1875 -18.234375 L 15.1875 0 L 3.1875 0 L 3.1875 -28.609375 L 17.4375 -28.609375 L 30.375 -8.171875 L 43.296875 -28.609375 L 57.578125 -28.609375 Z M 57.578125 0 "/></g></g></g><g fill="#ffe5b4" fill-opacity="1"><g transform="translate(130.894597, 166.760336)"><g><path d="M 20.109375 0.625 C 13.140625 0.625 8.226562 -0.828125 5.375 -3.734375 C 2.988281 -6.160156 1.796875 -9.675781 1.796875 -14.28125 L 1.796875 -28.59375 L 13.796875 -28.59375 L 13.796875 -14.28125 C 13.796875 -12.28125 14.132812 -10.703125 14.8125 -9.546875 C 15.78125 -7.890625 17.546875 -7.0625 20.109375 -7.0625 C 22.703125 -7.0625 24.476562 -7.890625 25.4375 -9.546875 C 26.113281 -10.742188 26.453125 -12.320312 26.453125 -14.28125 L 26.453125 -28.59375 L 38.453125 -28.59375 L 38.453125 -14.109375 C 38.453125 -9.617188 37.265625 -6.160156 34.890625 -3.734375 C 32.023438 -0.828125 27.097656 0.625 20.109375 0.625 Z M 20.109375 0.625 "/></g></g></g><g fill="#ffe5b4" fill-opacity="1"><g transform="translate(171.144586, 166.760336)"><g><path d="M 42.25 0 L 30.90625 0 C 30.382812 -0.71875 30.015625 -1.632812 29.796875 -2.75 C 29.617188 -3.613281 29.34375 -4.457031 28.96875 -5.28125 C 28.59375 -6.113281 27.945312 -6.804688 27.03125 -7.359375 C 26.125 -7.910156 24.773438 -8.207031 22.984375 -8.25 L 15.1875 -8.25 L 15.1875 0 L 3.1875 0 L 3.1875 -28.609375 L 22.703125 -28.609375 C 27.367188 -28.609375 31.132812 -28.257812 34 -27.5625 C 36.863281 -26.863281 38.953125 -25.765625 40.265625 -24.265625 C 41.585938 -22.773438 42.25 -20.828125 42.25 -18.421875 C 42.25 -16.410156 41.789062 -14.71875 40.875 -13.34375 C 39.96875 -11.976562 38.53125 -10.898438 36.5625 -10.109375 C 38.457031 -9.328125 39.6875 -8.382812 40.25 -7.28125 C 40.820312 -6.1875 41.175781 -4.984375 41.3125 -3.671875 C 41.4375 -2.492188 41.75 -1.269531 42.25 0 Z M 15.1875 -15.3125 L 22.046875 -15.328125 C 23.960938 -15.328125 25.472656 -15.410156 26.578125 -15.578125 C 27.679688 -15.753906 28.492188 -15.992188 29.015625 -16.296875 C 29.535156 -16.597656 29.867188 -16.929688 30.015625 -17.296875 C 30.171875 -17.660156 30.25 -18.035156 30.25 -18.421875 C 30.25 -18.804688 30.171875 -19.179688 30.015625 -19.546875 C 29.867188 -19.921875 29.535156 -20.257812 29.015625 -20.5625 C 28.492188 -20.863281 27.679688 -21.097656 26.578125 -21.265625 C 25.472656 -21.441406 23.960938 -21.53125 22.046875 -21.53125 L 15.1875 -21.53125 Z M 15.1875 -15.3125 "/></g></g></g><g fill="#ffe5b4" fill-opacity="1"><g transform="translate(214.982985, 166.760336)"><g><path d="M 20.109375 0.625 C 13.140625 0.625 8.226562 -0.828125 5.375 -3.734375 C 2.988281 -6.160156 1.796875 -9.675781 1.796875 -14.28125 L 1.796875 -28.59375 L 13.796875 -28.59375 L 13.796875 -14.28125 C 13.796875 -12.28125 14.132812 -10.703125 14.8125 -9.546875 C 15.78125 -7.890625 17.546875 -7.0625 20.109375 -7.0625 C 22.703125 -7.0625 24.476562 -7.890625 25.4375 -9.546875 C 26.113281 -10.742188 26.453125 -12.320312 26.453125 -14.28125 L 26.453125 -28.59375 L 38.453125 -28.59375 L 38.453125 -14.109375 C 38.453125 -9.617188 37.265625 -6.160156 34.890625 -3.734375 C 32.023438 -0.828125 27.097656 0.625 20.109375 0.625 Z M 20.109375 0.625 "/></g></g></g><g fill="#ffe5b4" fill-opacity="1"><g transform="translate(5.017694, 231.06958)"><g><path d="M 57.578125 0 L 45.578125 0 L 45.578125 -18.234375 L 34.84375 0 L 25.890625 0 L 15.1875 -18.234375 L 15.1875 0 L 3.1875 0 L 3.1875 -28.609375 L 17.4375 -28.609375 L 30.375 -8.171875 L 43.296875 -28.609375 L 57.578125 -28.609375 Z M 57.578125 0 "/></g></g></g><g fill="#ffe5b4" fill-opacity="1"><g transform="translate(65.781423, 231.06958)"><g><path d="M 20.109375 0.625 C 13.140625 0.625 8.226562 -0.828125 5.375 -3.734375 C 2.988281 -6.160156 1.796875 -9.675781 1.796875 -14.28125 L 1.796875 -28.59375 L 13.796875 -28.59375 L 13.796875 -14.28125 C 13.796875 -12.28125 14.132812 -10.703125 14.8125 -9.546875 C 15.78125 -7.890625 17.546875 -7.0625 20.109375 -7.0625 C 22.703125 -7.0625 24.476562 -7.890625 25.4375 -9.546875 C 26.113281 -10.742188 26.453125 -12.320312 26.453125 -14.28125 L 26.453125 -28.59375 L 38.453125 -28.59375 L 38.453125 -14.109375 C 38.453125 -9.617188 37.265625 -6.160156 34.890625 -3.734375 C 32.023438 -0.828125 27.097656 0.625 20.109375 0.625 Z M 20.109375 0.625 "/></g></g></g><g fill="#ffe5b4" fill-opacity="1"><g transform="translate(106.031413, 231.06958)"><g><path d="M 42.25 0 L 30.90625 0 C 30.382812 -0.71875 30.015625 -1.632812 29.796875 -2.75 C 29.617188 -3.613281 29.34375 -4.457031 28.96875 -5.28125 C 28.59375 -6.113281 27.945312 -6.804688 27.03125 -7.359375 C 26.125 -7.910156 24.773438 -8.207031 22.984375 -8.25 L 15.1875 -8.25 L 15.1875 0 L 3.1875 0 L 3.1875 -28.609375 L 22.703125 -28.609375 C 27.367188 -28.609375 31.132812 -28.257812 34 -27.5625 C 36.863281 -26.863281 38.953125 -25.765625 40.265625 -24.265625 C 41.585938 -22.773438 42.25 -20.828125 42.25 -18.421875 C 42.25 -16.410156 41.789062 -14.71875 40.875 -13.34375 C 39.96875 -11.976562 38.53125 -10.898438 36.5625 -10.109375 C 38.457031 -9.328125 39.6875 -8.382812 40.25 -7.28125 C 40.820312 -6.1875 41.175781 -4.984375 41.3125 -3.671875 C 41.4375 -2.492188 41.75 -1.269531 42.25 0 Z M 15.1875 -15.3125 L 22.046875 -15.328125 C 23.960938 -15.328125 25.472656 -15.410156 26.578125 -15.578125 C 27.679688 -15.753906 28.492188 -15.992188 29.015625 -16.296875 C 29.535156 -16.597656 29.867188 -16.929688 30.015625 -17.296875 C 30.171875 -17.660156 30.25 -18.035156 30.25 -18.421875 C 30.25 -18.804688 30.171875 -19.179688 30.015625 -19.546875 C 29.867188 -19.921875 29.535156 -20.257812 29.015625 -20.5625 C 28.492188 -20.863281 27.679688 -21.097656 26.578125 -21.265625 C 25.472656 -21.441406 23.960938 -21.53125 22.046875 -21.53125 L 15.1875 -21.53125 Z M 15.1875 -15.3125 "/></g></g></g><g fill="#ffe5b4" fill-opacity="1"><g transform="translate(149.869811, 231.06958)"><g><path d="M 20.109375 0.625 C 13.140625 0.625 8.226562 -0.828125 5.375 -3.734375 C 2.988281 -6.160156 1.796875 -9.675781 1.796875 -14.28125 L 1.796875 -28.59375 L 13.796875 -28.59375 L 13.796875 -14.28125 C 13.796875 -12.28125 14.132812 -10.703125 14.8125 -9.546875 C 15.78125 -7.890625 17.546875 -7.0625 20.109375 -7.0625 C 22.703125 -7.0625 24.476562 -7.890625 25.4375 -9.546875 C 26.113281 -10.742188 26.453125 -12.320312 26.453125 -14.28125 L 26.453125 -28.59375 L 38.453125 -28.59375 L 38.453125 -14.109375 C 38.453125 -9.617188 37.265625 -6.160156 34.890625 -3.734375 C 32.023438 -0.828125 27.097656 0.625 20.109375 0.625 Z M 20.109375 0.625 "/></g></g></g></svg>