<?xml version="1.0" standalone="no"?>
<!DOCTYPE svg PUBLIC "-//W3C//DTD SVG 20010904//EN"
 "http://www.w3.org/TR/2001/REC-SVG-20010904/DTD/svg10.dtd">
<svg version="1.0" xmlns="http://www.w3.org/2000/svg"
 width="64.000000pt" height="64.000000pt" viewBox="0 0 64.000000 64.000000"
 preserveAspectRatio="xMidYMid meet">

<g transform="translate(0.000000,64.000000) scale(0.100000,-0.100000)"
fill="#000000" stroke="none">
<path d="M125 625 c-52 -18 -101 -72 -115 -126 -13 -47 -9 -341 4 -371 5 -11
19 -18 38 -18 26 0 28 2 21 23 -4 12 -8 97 -8 189 0 187 6 205 76 240 50 26
308 26 358 0 70 -35 76 -53 76 -240 0 -92 -4 -177 -8 -190 -7 -20 -5 -22 21
-22 19 0 33 7 38 18 14 31 17 324 4 372 -15 56 -72 114 -125 129 -59 16 -331
13 -380 -4z"/>
<path d="M454 506 c-12 -31 0 -51 31 -51 27 0 30 3 30 30 0 25 -4 30 -28 33
-17 2 -29 -2 -33 -12z"/>
<path d="M239 458 c-75 -43 -103 -150 -57 -218 39 -57 72 -75 138 -75 66 0 99
18 138 75 29 43 29 109 1 160 -42 75 -145 102 -220 58z m150 -69 c43 -42 43
-98 2 -140 -64 -64 -171 -20 -171 69 0 56 45 102 100 102 30 0 46 -7 69 -31z"/>
</g>
</svg>
